<svg xmlns="http://www.w3.org/2000/svg" version="1.1" xmlns:xlink="http://www.w3.org/1999/xlink" xmlns:svgjs="http://svgjs.dev/svgjs" width="1500" height="530" viewBox="0 0 1500 530"><g transform="matrix(1,0,0,1,-0.9090909090909918,-0.749836701893912)"><svg viewBox="0 0 396 140" data-background-color="#ffffff" preserveAspectRatio="xMidYMid meet" height="530" width="1500" xmlns="http://www.w3.org/2000/svg" xmlns:xlink="http://www.w3.org/1999/xlink"><g id="tight-bounds" transform="matrix(1,0,0,1,0.2400000000000091,0.1980700721983908)"><svg viewBox="0 0 395.52 139.60385985560322" height="139.60385985560322" width="395.52"><g><svg viewBox="0 0 646.0787997895795 228.0418037558171" height="139.60385985560322" width="395.52"><g transform="matrix(1,0,0,1,250.5587997895795,70.46822736381056)"><svg viewBox="0 0 395.52 87.105349028196" height="87.105349028196" width="395.52"><g id="textblocktransform"><svg viewBox="0 0 395.52 87.105349028196" height="87.105349028196" width="395.52" id="textblock"><g><svg viewBox="0 0 395.52 87.105349028196" height="87.105349028196" width="395.52"><g transform="matrix(1,0,0,1,0,0)"><svg width="395.52" viewBox="1.98 -38.57 178.36 39.28" height="87.105349028196" data-palette-color="#000000"><path d="M35.91-26.44L35.91-26.44 31.74-24.68Q31.25-26.27 30.43-27.59 29.61-28.91 28.48-29.85 27.34-30.79 25.9-31.31 24.46-31.84 22.75-31.84L22.75-31.84Q20.92-31.84 19.4-31.23 17.87-30.62 16.66-29.58 15.45-28.54 14.55-27.15 13.65-25.76 13.05-24.18 12.45-22.61 12.15-20.92 11.84-19.24 11.84-17.63L11.84-17.63Q11.84-15.06 12.44-12.52 13.04-9.99 14.34-7.96 15.65-5.93 17.72-4.68 19.8-3.42 22.75-3.42L22.75-3.42Q24.37-3.42 25.27-4.14 26.17-4.86 26.17-6.67L26.17-6.67 26.17-17.46 35.86-17.46 35.86 0 33.06 0 31.35-2.76Q29-0.98 26.18-0.13 23.36 0.71 20.43 0.71L20.43 0.71Q17.85 0.71 15.47 0.07 13.09-0.56 11.04-1.73 8.98-2.91 7.31-4.57 5.64-6.23 4.46-8.25 3.27-10.28 2.62-12.66 1.98-15.04 1.98-17.63L1.98-17.63Q1.98-20.21 2.62-22.6 3.27-24.98 4.46-27.01 5.64-29.05 7.31-30.71 8.98-32.37 11.04-33.54 13.09-34.72 15.47-35.35 17.85-35.99 20.43-35.99L20.43-35.99Q22.92-35.99 25.31-35.4 27.69-34.81 29.74-33.63 31.79-32.45 33.39-30.65 34.99-28.86 35.91-26.44ZM71.65-14.16L71.65-14.16Q71.65-11.96 71.07-10.03 70.48-8.11 69.44-6.47 68.41-4.83 66.94-3.53 65.48-2.22 63.73-1.32 61.98-0.42 60 0.07 58.01 0.56 55.91 0.56L55.91 0.56Q53.81 0.56 51.83 0.07 49.85-0.42 48.11-1.32 46.36-2.22 44.89-3.53 43.43-4.83 42.39-6.47 41.35-8.11 40.77-10.05 40.18-11.99 40.18-14.16L40.18-14.16Q40.18-16.33 40.77-18.27 41.35-20.21 42.39-21.85 43.43-23.49 44.89-24.79 46.36-26.1 48.11-27 49.85-27.91 51.83-28.39 53.81-28.88 55.91-28.88L55.91-28.88Q58.01-28.88 60-28.39 61.98-27.91 63.73-27 65.48-26.1 66.94-24.79 68.41-23.49 69.44-21.85 70.48-20.21 71.07-18.27 71.65-16.33 71.65-14.16ZM63.25-14.16L63.25-14.16Q63.25-15.33 63.12-16.64 62.99-17.94 62.67-19.2 62.35-20.46 61.8-21.62 61.25-22.78 60.45-23.65 59.64-24.51 58.52-25.04 57.39-25.56 55.91-25.56L55.91-25.56Q54.49-25.56 53.39-25.02 52.29-24.49 51.47-23.6 50.66-22.71 50.11-21.53 49.56-20.36 49.22-19.1 48.87-17.85 48.73-16.56 48.58-15.28 48.58-14.16L48.58-14.16Q48.58-13.04 48.73-11.76 48.87-10.47 49.22-9.2 49.56-7.93 50.11-6.77 50.66-5.62 51.47-4.72 52.29-3.83 53.39-3.3 54.49-2.76 55.91-2.76L55.91-2.76Q57.37-2.76 58.49-3.28 59.62-3.81 60.43-4.69 61.25-5.57 61.79-6.71 62.33-7.86 62.66-9.13 62.99-10.4 63.12-11.69 63.25-12.99 63.25-14.16ZM111.47-17.63L111.47-17.63Q111.47-15.06 110.79-12.76 110.1-10.45 108.87-8.5 107.64-6.54 105.93-4.97 104.22-3.39 102.16-2.29 100.09-1.2 97.74-0.6 95.38 0 92.89 0L92.89 0 77.39 0 77.39-35.16 92.89-35.16Q95.38-35.16 97.72-34.57 100.07-33.98 102.13-32.9 104.19-31.81 105.92-30.25 107.64-28.69 108.87-26.75 110.1-24.8 110.79-22.5 111.47-20.19 111.47-17.63ZM101.63-17.63L101.63-17.63Q101.63-20.48 100.93-23.06 100.24-25.63 98.77-27.59 97.31-29.54 95.05-30.69 92.79-31.84 89.64-31.84L89.64-31.84 87.08-31.84 87.08-3.42 89.64-3.42Q92.74-3.42 95-4.58 97.26-5.74 98.74-7.7 100.21-9.67 100.92-12.23 101.63-14.79 101.63-17.63ZM145.04-28.2L145.04 0 136.78 0 136.78-3.37Q135.32-1.37 133.26-0.4 131.19 0.56 128.73 0.56L128.73 0.56Q125.51 0.56 122.97-0.59 120.43-1.73 118.67-3.72 116.91-5.71 115.98-8.4 115.06-11.08 115.06-14.16L115.06-14.16Q115.06-17.24 115.98-19.92 116.91-22.61 118.67-24.6 120.43-26.59 122.97-27.73 125.51-28.88 128.73-28.88L128.73-28.88Q130.36-28.88 131.84-28.39 133.32-27.91 134.55-27.01 135.78-26.12 136.72-24.87 137.66-23.61 138.2-22.07L138.2-22.07 141.86-28.2 145.04-28.2ZM136.74-14.16L136.74-14.16Q136.74-15.26 136.63-16.48 136.52-17.7 136.25-18.9 135.98-20.09 135.5-21.18 135.03-22.27 134.28-23.11 133.54-23.95 132.49-24.44 131.44-24.93 130.05-24.93L130.05-24.93Q128.65-24.93 127.63-24.43 126.6-23.93 125.87-23.08 125.14-22.24 124.66-21.14 124.19-20.04 123.92-18.85 123.65-17.65 123.54-16.44 123.43-15.23 123.43-14.16L123.43-14.16Q123.43-13.09 123.54-11.87 123.65-10.64 123.92-9.45 124.19-8.25 124.66-7.15 125.14-6.05 125.87-5.21 126.6-4.37 127.63-3.87 128.65-3.37 130.05-3.37L130.05-3.37Q131.32-3.37 132.3-3.89 133.29-4.42 134.04-5.3 134.78-6.18 135.3-7.3 135.81-8.42 136.13-9.62 136.44-10.82 136.59-12 136.74-13.18 136.74-14.16ZM180.34-38.57L180.34 0 177.16 0 173.5-6.13Q172.96-4.59 172.02-3.34 171.08-2.1 169.85-1.21 168.62-0.32 167.14 0.17 165.66 0.66 164.03 0.66L164.03 0.66Q160.81 0.66 158.27-0.49 155.73-1.64 153.97-3.63 152.21-5.62 151.28-8.3 150.36-10.99 150.36-14.06L150.36-14.06Q150.36-17.14 151.28-19.82 152.21-22.51 153.97-24.49 155.73-26.46 158.27-27.61 160.81-28.76 164.03-28.76L164.03-28.76Q166.49-28.76 168.56-27.81 170.62-26.86 172.08-24.83L172.08-24.83 172.08-38.57 180.34-38.57ZM172.04-14.06L172.04-14.06Q172.04-15.04 171.89-16.21 171.74-17.38 171.43-18.58 171.11-19.78 170.6-20.9 170.08-22.02 169.34-22.9 168.59-23.78 167.6-24.3 166.62-24.83 165.35-24.83L165.35-24.83Q163.95-24.83 162.93-24.33 161.9-23.83 161.17-22.99 160.44-22.14 159.96-21.04 159.49-19.95 159.22-18.75 158.95-17.55 158.84-16.35 158.73-15.14 158.73-14.06L158.73-14.06Q158.73-12.99 158.84-11.78 158.95-10.57 159.22-9.38 159.49-8.18 159.96-7.07 160.44-5.96 161.17-5.11 161.9-4.27 162.93-3.77 163.95-3.27 165.35-3.27L165.35-3.27Q166.74-3.27 167.79-3.76 168.84-4.25 169.58-5.09 170.33-5.93 170.8-7.02 171.28-8.11 171.55-9.31 171.82-10.52 171.93-11.74 172.04-12.96 172.04-14.06Z" opacity="1" transform="matrix(1,0,0,1,0,0)" fill="#000000" class="wordmark-text-0" data-fill-palette-color="primary" id="text-0"></path></svg></g></svg></g></svg></g></svg></g><g><svg viewBox="0 0 229.9953174123991 228.0418037558171" height="228.0418037558171" width="229.9953174123991"><g><svg xmlns="http://www.w3.org/2000/svg" xmlns:xlink="http://www.w3.org/1999/xlink" version="1.1" x="0" y="0" viewBox="4.15695038450014 4.068 44.20849415369758 43.833000000000006" enable-background="new 0 0 50 50" xml:space="preserve" height="228.0418037558171" width="229.9953174123991" class="icon-icon-0" data-fill-palette-color="accent" id="icon-0"><g fill="#000000" data-fill-palette-color="accent"><path fill="#000000" d="M34.835 4.068C31.604 4.068 28.667 5.268 26.262 7.557 23.854 5.281 20.912 4.085 17.682 4.085 12.717 4.085 7.827 7.036 5.511 11.43 3.463 15.322 3.751 19.77 6.288 23.686L6.473 23.998C6.867 24.644 7.369 25.263 8.156 26.044L26.15 47.901 44.295 26.122 44.357 26.034A12.6 12.6 0 0 0 46.015 24.055L46.238 23.696V23.686C48.774 19.772 49.058 15.323 47.008 11.424 44.688 7.024 39.797 4.068 34.835 4.068M43.907 22.576L43.722 22.87A10 10 0 0 1 42.512 24.263L26.162 43.896 10.131 24.419 9.868 24.156A9 9 0 0 1 8.845 22.958L8.621 22.579C6.397 19.341 6.096 15.804 7.772 12.62 9.655 9.045 13.637 6.641 17.681 6.641 20.598 6.641 23.234 7.887 25.303 10.245L26.267 11.343 27.223 10.241C29.288 7.875 31.921 6.624 34.834 6.624 38.876 6.624 42.855 9.032 44.743 12.616 46.423 15.804 46.123 19.341 43.907 22.576" data-fill-palette-color="accent"></path><rect x="22.224" y="17.938" fill="#000000" width="11.511" height="2.556" data-fill-palette-color="accent"></rect><rect x="22.224" y="22.038" fill="#000000" width="4.578" height="2.553" data-fill-palette-color="accent"></rect><rect x="22.318" y="26.241" fill="#000000" width="7.881" height="2.555" data-fill-palette-color="accent"></rect><rect x="22.318" y="30.446" fill="#000000" width="7.881" height="2.556" data-fill-palette-color="accent"></rect></g></svg></g></svg></g></svg></g><defs></defs></svg><rect width="395.52" height="139.60385985560322" fill="none" stroke="none" visibility="hidden"></rect></g></svg></g></svg>